<svg xmlns="http://www.w3.org/2000/svg" width="456" height="620" viewBox="0 0 456 620">
  <rect width="456" height="620" fill="#f4f1e8"/>
  <g transform="translate(5 4)" opacity="0.55"><circle cx="228" cy="300" r="150" fill="none" stroke="#2d5c8f" stroke-width="10"/><line x1="228" y1="300" x2="378" y2="300" stroke="#2d5c8f" stroke-width="6"/><line x1="228" y1="300" x2="357.9038105676658" y2="375" stroke="#2d5c8f" stroke-width="6"/><line x1="228" y1="300" x2="303" y2="429.9038105676658" stroke="#2d5c8f" stroke-width="6"/><line x1="228" y1="300" x2="228" y2="450" stroke="#2d5c8f" stroke-width="6"/><line x1="228" y1="300" x2="153.00000000000003" y2="429.9038105676658" stroke="#2d5c8f" stroke-width="6"/><line x1="228" y1="300" x2="98.0961894323342" y2="375" stroke="#2d5c8f" stroke-width="6"/><line x1="228" y1="300" x2="78" y2="300" stroke="#2d5c8f" stroke-width="6"/><line x1="228" y1="300" x2="98.09618943233417" y2="225.00000000000006" stroke="#2d5c8f" stroke-width="6"/><line x1="228" y1="300" x2="152.99999999999994" y2="170.09618943233423" stroke="#2d5c8f" stroke-width="6"/><line x1="228" y1="300" x2="227.99999999999997" y2="150" stroke="#2d5c8f" stroke-width="6"/><line x1="228" y1="300" x2="303" y2="170.0961894323342" stroke="#2d5c8f" stroke-width="6"/><line x1="228" y1="300" x2="357.90381056766574" y2="224.99999999999994" stroke="#2d5c8f" stroke-width="6"/><path d="M138 450 L228 300 L318 450 Z" fill="none" stroke="#2d5c8f" stroke-width="10"/></g>
  <g><circle cx="228" cy="300" r="150" fill="none" stroke="#e8564a" stroke-width="10"/><line x1="228" y1="300" x2="378" y2="300" stroke="#e8564a" stroke-width="6"/><line x1="228" y1="300" x2="357.9038105676658" y2="375" stroke="#e8564a" stroke-width="6"/><line x1="228" y1="300" x2="303" y2="429.9038105676658" stroke="#e8564a" stroke-width="6"/><line x1="228" y1="300" x2="228" y2="450" stroke="#e8564a" stroke-width="6"/><line x1="228" y1="300" x2="153.00000000000003" y2="429.9038105676658" stroke="#e8564a" stroke-width="6"/><line x1="228" y1="300" x2="98.0961894323342" y2="375" stroke="#e8564a" stroke-width="6"/><line x1="228" y1="300" x2="78" y2="300" stroke="#e8564a" stroke-width="6"/><line x1="228" y1="300" x2="98.09618943233417" y2="225.00000000000006" stroke="#e8564a" stroke-width="6"/><line x1="228" y1="300" x2="152.99999999999994" y2="170.09618943233423" stroke="#e8564a" stroke-width="6"/><line x1="228" y1="300" x2="227.99999999999997" y2="150" stroke="#e8564a" stroke-width="6"/><line x1="228" y1="300" x2="303" y2="170.0961894323342" stroke="#e8564a" stroke-width="6"/><line x1="228" y1="300" x2="357.90381056766574" y2="224.99999999999994" stroke="#e8564a" stroke-width="6"/><path d="M138 450 L228 300 L318 450 Z" fill="none" stroke="#e8564a" stroke-width="10"/></g>
  
  
</svg>